<?xml version="1.0" encoding="UTF-8"?>
<svg width="165px" height="43px" viewBox="0 0 165 43" version="1.1" xmlns="http://www.w3.org/2000/svg" xmlns:xlink="http://www.w3.org/1999/xlink">
    <!-- Generator: Sketch 54.1 (76490) - https://sketchapp.com -->
    <title>Group 30</title>
    <desc>Created with Sketch.</desc>
    <g id="Home" stroke="none" stroke-width="1" fill="none" fill-rule="evenodd">
        <g id="Home-" transform="translate(-40.000000, -29.000000)">
            <g id="Nav" transform="translate(0.000000, 0.000000)">
                <g id="Group-7">
                    <g id="Logo" transform="translate(40.000000, 29.000000)">
                        <g id="Group-29">
                            <g id="Group-30">
                                <path d="M53.0532585,9 L58.0071629,9 L58.0071629,29.326593 L67.0532585,29.326593 L67.0532585,34 L53.0532585,34 L53.0532585,9 Z M69.0532585,34 L69.0532585,9 L74.0532585,9 L74.0532585,34 L69.0532585,34 Z M95.0532585,9 L109.053259,9 L109.053259,13.6567812 L99.9006013,13.6567812 L99.9006013,19.253959 L107.940422,19.253959 L107.940422,23.5792635 L99.9006013,23.5792635 L99.9006013,29.326593 L109.053259,29.326593 L109.053259,34 L95.0532585,34 L95.0532585,9 Z M128.053259,9 L144.053259,9 L144.053259,13.6905524 L138.516129,13.6905524 L138.516129,34 L133.489752,34 L133.489752,13.6905524 L128.053259,13.6905524 L128.053259,9 Z M159.868766,9 L165.053259,9 L157.533634,23.1745293 L157.533634,34 L152.60866,34 L152.60866,23.1745293 L145.053259,9 L150.3045,9 L155.098114,17.9935159 L159.868766,9 Z M87.2217508,28.7176732 C87.9243997,28.2199385 88.2759897,27.4961968 88.2759897,26.5469679 C88.2759897,25.473565 87.8633229,24.626169 87.0385204,24.0052995 C86.214249,23.3828713 84.844004,23.0721767 82.9277855,23.0721767 L81.917097,23.0721767 L81.917097,29.4627167 L83.13704,29.4627167 C85.1578857,29.4627167 86.519102,29.2143688 87.2217508,28.7176732 Z M81.917097,13.6567812 L81.917097,19.253959 L82.9814269,19.253959 C84.1668481,19.253959 85.0479475,18.9952201 85.6231317,18.4772227 C86.1993781,17.9597448 86.4867047,17.2557463 86.4867047,16.3652271 C86.4867047,15.5339374 86.2126557,14.8751403 85.6672132,14.3877967 C85.1212396,13.8999335 84.2895328,13.6567812 83.1731549,13.6567812 L81.917097,13.6567812 Z M91.9767133,22.9105948 C92.6947642,23.9813999 93.0532585,25.2475581 93.0532585,26.7090694 C93.0532585,28.113949 92.6825488,29.3946548 91.9405983,30.5501476 C91.1981168,31.7056403 90.2421319,32.5696621 89.0705193,33.1422129 C87.8994379,33.7142441 86.2822302,34 84.2188962,34 L77.0532585,34 L77.0532585,9 L81.0710504,9 C83.4020602,9 85.1063688,9.14755393 86.1850384,9.44162268 C87.7162074,9.83856353 88.9334948,10.5747745 89.8379627,11.6512947 C90.7424306,12.727815 91.194399,13.9965709 91.194399,15.4580822 C91.194399,16.409909 90.9893934,17.2739308 90.5777888,18.0501476 C90.1667153,18.8263644 89.4975259,19.5542624 88.5712828,20.2338418 C90.1231649,20.9477119 91.2586625,21.8403092 91.9767133,22.9105948 Z M121.418163,18.6029552 C121.988516,18.1696455 122.272396,17.4500603 122.272396,16.4457583 C122.272396,15.8503471 122.131234,15.3333888 121.849431,14.8933247 C121.567628,14.4532607 121.189295,14.1368511 120.71599,13.9451349 C120.241127,13.7523796 119.373401,13.6567812 118.110216,13.6567812 L116.806551,13.6567812 L116.806551,19.253959 L118.296009,19.253959 C119.807783,19.253959 120.848328,19.036265 121.418163,18.6029552 Z M122.669931,22.6440625 L128.053259,34 L122.856762,34 L118.271098,23.5792635 L116.806551,23.5792635 L116.806551,34 L112.053259,34 L112.053259,9 L117.089392,9 C119.847744,9 121.812065,9.24626959 122.981835,9.73932832 C124.152123,10.232387 125.093025,11.0506879 125.805059,12.19527 C126.517092,13.339852 126.873628,14.6938152 126.873628,16.2571595 C126.873628,17.8999958 126.480764,19.2737021 125.693998,20.3782784 C124.907751,21.4828546 124.253842,22.0777464 122.669931,22.6440625 Z" id="LIBERTY" fill="#FFFFFF"></path>
                                <g id="Icon">
                                    <path d="M0,42.9188451 L42.661806,42.9188451 L42.661806,0 L0,0 L0,42.9188451 Z M20.249097,17.3986479 C20.253311,17.4065211 20.246087,17.4307465 20.2298328,17.4676901 C20.2412709,17.4259014 20.249097,17.3986479 20.249097,17.3986479 L20.249097,17.3986479 Z" id="Fill-10" fill="#FFFFFF"></path>
                                    <path d="M32.7654783,29.9863225 C32.2086221,30.9486746 31.298388,31.5421958 30.3911639,32.0267028 L30.3923679,32.0273085 L30.3887559,32.0279141 C30.1575853,32.1508577 29.9264147,32.269562 29.7012642,32.3822099 C29.146214,32.661407 28.6212642,32.9248577 28.2353779,33.2288859 C27.435311,33.8672239 27.2474849,35.1220972 27.2456789,35.1354211 L27.163806,35.7113789 L26.982602,35.1584352 C26.981398,35.1535901 26.9428696,35.0294352 26.9091572,34.8338155 C26.80501,34.388069 26.8164482,33.928393 26.9597258,33.4899141 C26.9747759,33.4438859 26.9934381,33.4002803 27.0108963,33.3548577 C27.1102274,33.0762662 27.2697592,32.8000972 27.5165819,32.552393 C27.7110301,32.3458718 27.9403946,32.1696324 28.2004615,32.0376042 C28.2913645,31.9915761 28.3846756,31.9528155 28.4791906,31.9182944 C28.785612,31.7826324 29.1028696,31.6814915 29.4297592,31.5779282 C30.3231371,31.2969141 31.3357124,30.9777451 32.5547759,29.8191676 L33.2404615,29.1669 L32.7654783,29.9863225 Z M23.5030033,29.4739563 C22.6692241,29.9790549 21.8811973,30.4562944 21.313505,30.9825901 C20.1365819,32.0836324 19.9945084,34.0810127 19.9933043,34.1009986 L19.9433378,34.8725761 L19.6459465,34.1597451 C19.6435385,34.1536887 19.5917659,34.0216606 19.5315652,33.8090831 C19.2714983,33.0895901 19.2269498,32.3234634 19.4069498,31.5779282 C19.422602,31.5125197 19.4448763,31.4507451 19.4635385,31.3871535 C19.5845418,30.9238437 19.8078863,30.4575056 20.1811304,30.0299282 C20.5537726,29.5763085 21.0209298,29.2147451 21.5464816,28.970069 C22.0142408,28.7138859 22.5036722,28.5134211 23.0087559,28.3093225 C24.371699,27.7581958 25.9158462,27.1337873 27.6809298,25.1679 L28.5237391,24.2297732 L27.9783211,25.3689704 C27.0385886,27.3318296 25.1603278,28.4698155 23.5030033,29.4739563 L23.5030033,29.4739563 Z M13.4753779,28.0652521 C12.133505,30.1110831 12.6470167,33.0393225 12.6470167,33.0393225 C12.6470167,33.0393225 12.5236054,32.8697451 12.3580535,32.575407 C11.8174515,31.7438718 11.498388,30.7542662 11.498388,29.6865338 C11.498388,29.6695761 11.500796,29.6526183 11.500796,29.6356606 C11.4839398,28.8858859 11.6320334,28.0755479 12.0805284,27.2724775 C12.4254783,26.5965901 12.9082876,26.0060972 13.4946421,25.5373366 C15.5209967,23.6804634 18.3131037,22.7399141 20.8180535,18.0862239 C19.8614649,22.5897169 15.3205284,25.2847873 13.4753779,28.0652521 L13.4753779,28.0652521 Z M35.3318328,20.4518296 C35.3318328,20.4518296 36.3311639,22.741731 34.9086221,25.1358014 C34.9086221,25.1358014 33.8454783,27.1925338 31.211699,27.6788577 C31.211699,27.6788577 33.643204,23.8355056 32.6607291,18.1685901 C32.6607291,18.1685901 32.1333712,13.9957732 28.3828696,10.4285901 C28.3828696,10.4285901 30.581398,14.3942803 27.9855452,18.7076042 C27.9855452,18.7076042 26.714709,21.0804775 23.8551773,22.1651676 C23.8551773,22.1651676 23.8804615,22.1058155 23.9147759,22.0210268 L23.9159799,22.0192099 C23.922602,22.0028577 23.9328361,21.974393 23.9400602,21.9562239 C23.9557124,21.9174634 23.9695585,21.881731 23.9882207,21.8314634 C24.009893,21.7751394 24.0327692,21.709731 24.0580535,21.6400831 C24.0761137,21.5879986 24.0929699,21.5425761 24.1128361,21.4832239 C24.1435385,21.3935901 24.1760468,21.2906324 24.2097592,21.1852521 C24.2272174,21.1289282 24.2434716,21.0810831 24.2615318,21.0211254 C24.3054783,20.8757732 24.3500268,20.7152803 24.3957793,20.5463085 C24.4042074,20.5136042 24.4126355,20.4869563 24.4216656,20.4536465 C24.4758462,20.2447028 24.5294247,20.0200127 24.5811973,19.7795761 C24.5878194,19.7517169 24.5926355,19.7196183 24.5986555,19.6911535 C24.642602,19.4816042 24.6847425,19.2623648 24.7232709,19.0316183 C24.735913,18.9547028 24.7455452,18.871731 24.7575853,18.792393 C24.7864816,18.6022239 24.8141739,18.410238 24.8370502,18.2079563 C24.8490903,18.1049986 24.8569164,17.9978014 24.8665485,17.8918155 C24.8846087,17.7028577 24.9008629,17.5126887 24.912301,17.3152521 C24.9189231,17.194731 24.9219331,17.0711817 24.9261472,16.948238 C24.9321672,16.7550408 24.9357793,16.561238 24.9345753,16.3613789 C24.9339732,16.2281394 24.9297592,16.0942944 24.9255452,15.9580268 C24.9183211,15.7593789 24.9074849,15.5595197 24.8924348,15.3554211 C24.8815987,15.2130972 24.8689565,15.0707732 24.8539064,14.9260268 C24.8322341,14.7207169 24.8039398,14.5141958 24.7726355,14.3052521 C24.7503612,14.1562662 24.7268829,14.0084915 24.6997926,13.8576887 C24.6600602,13.6457169 24.6118997,13.4319282 24.5607291,13.2163225 C24.5252107,13.0655197 24.4914983,12.9153225 24.4499599,12.7633085 C24.3891572,12.5398296 24.3151104,12.3151394 24.2404615,12.089238 C24.192301,11.9426746 24.1489565,11.7973225 24.0941739,11.6495479 C24.0020669,11.401238 23.8925017,11.1523225 23.7823344,10.9028014 C23.7263478,10.7774352 23.6793913,10.6526746 23.6191906,10.5267028 C23.4385886,10.1518155 23.2393244,9.77632254 23.0129699,9.40204085 C23.0129699,9.40204085 21.3315652,6.34480141 18.3275518,4.60602676 C18.3269498,4.60481549 18.3233378,4.59754789 18.3233378,4.59754789 C18.3227358,4.59754789 18.3227358,4.59754789 18.3233378,4.59754789 L18.3131037,4.59754789 C18.3131037,4.59754789 18.3221338,4.60784366 18.3365819,4.62480141 C18.4726355,4.89733662 20.0842074,8.21257606 19.5430033,11.2437732 C18.9783211,14.4069986 15.6251438,15.5946465 10.7729699,19.1697028 C10.3064147,19.5137028 9.87959197,19.8686042 9.48828763,20.2331958 C7.27290301,22.1124775 5.86059532,24.9183789 5.86059532,28.0628296 C5.86059532,28.3783648 5.87985953,28.6884493 5.90755184,28.9967169 C5.91477592,29.0802944 5.92380602,29.1632662 5.93343813,29.2450268 C5.96353846,29.5072662 6.00206689,29.7658718 6.05143144,30.0214493 C6.06046154,30.0680831 6.06648161,30.1165338 6.07611371,30.1631676 C6.13631438,30.4544775 6.21156522,30.7403366 6.29584615,31.022562 C6.31932441,31.1012944 6.34581271,31.1788155 6.37109699,31.2569423 C6.44273579,31.4779986 6.52220067,31.6954211 6.60828763,31.9092099 C6.63658194,31.9794634 6.66246823,32.0503225 6.69196656,32.1193648 C6.8039398,32.3797873 6.92614716,32.6341535 7.05798662,32.883069 C7.09771906,32.957562 7.14106355,33.0296324 7.182,33.1035197 C7.28614716,33.2876324 7.39511037,33.4687169 7.50949164,33.645562 C7.56246823,33.7273225 7.6142408,33.8090831 7.66902341,33.8890268 C7.82253512,34.1119 7.9826689,34.3305338 8.15303679,34.5400831 C8.2084214,34.6079141 8.26741806,34.6715056 8.3246087,34.7381254 C8.45343813,34.8895338 8.58648161,35.0373085 8.72373913,35.1808437 C8.80260201,35.2626042 8.88146488,35.3437592 8.96273579,35.4230972 C9.11564548,35.5714775 9.27276923,35.7150127 9.43470903,35.8537028 C9.53223411,35.9378859 9.63156522,36.0196465 9.73210033,36.1001958 C9.89163211,36.2273789 10.0535719,36.3503225 10.2203278,36.4672099 L12.669291,38.3216606 L15.9327692,38.3174211 C15.9743077,38.3180268 16.0152441,38.3216606 16.0573846,38.3216606 L22.2923679,38.3216606 L30.3044749,38.3216606 C30.3044749,38.3216606 29.1504281,36.4448014 31.929893,33.9120408 C34.7093579,31.3804915 36.2799933,28.7193366 36.5274181,27.238562 C36.5292241,27.2270549 36.526214,27.2216042 36.5274181,27.2107028 C36.9873512,25.4349845 37.0331037,23.0082099 35.3318328,20.4518296 L35.3318328,20.4518296 Z" id="Fill-12" fill="#00194F"></path>
                                </g>
                            </g>
                        </g>
                    </g>
                </g>
            </g>
        </g>
    </g>
</svg>